<?xml version="1.0" encoding="utf-8"?>
<!-- Generator: Adobe Illustrator 16.0.0, SVG Export Plug-In . SVG Version: 6.00 Build 0)  -->
<!DOCTYPE svg PUBLIC "-//W3C//DTD SVG 1.1//EN" "http://www.w3.org/Graphics/SVG/1.1/DTD/svg11.dtd">
<svg version="1.1" id="Layer_1" xmlns="http://www.w3.org/2000/svg" xmlns:xlink="http://www.w3.org/1999/xlink" x="0px" y="0px"
	 width="1000px" height="1000px" viewBox="0 0 1000 1000" enable-background="new 0 0 1000 1000" xml:space="preserve">
<g>
	<path fill="#666666" d="M950.546,463.585c-0.411-0.612-0.855-1.209-1.368-1.769l-1.404-1.532
		c-3.325-3.895-6.785-7.672-10.372-11.323L749.164,243.47c-0.393-0.495-0.821-0.973-1.289-1.425
		c-18.744-18.204-42.982-28.861-68.857-30.46c-10.761-19.205-31.234-31.546-53.772-31.546c-33.99,0-61.645,27.654-61.645,61.644
		v78.278v15.655v47.945H436.399v-47.945v-15.655v-78.278c0-33.99-27.653-61.644-61.644-61.644
		c-22.533,0-43.014,12.343-53.779,31.546c-25.873,1.599-50.111,12.256-68.855,30.46c-0.464,0.45-0.893,0.924-1.282,1.419
		L62.597,448.961c-3.587,3.651-7.047,7.427-10.372,11.323l-1.405,1.532c-0.513,0.56-0.957,1.156-1.368,1.769
		C18.565,501.239,0,549.372,0,601.762c0,120.314,97.885,218.199,218.2,218.199s218.2-97.885,218.2-218.199
		c0-5.596-0.214-11.144-0.63-16.635h128.459c-0.416,5.491-0.63,11.039-0.63,16.635c0,120.314,97.885,218.199,218.2,218.199
		c120.314,0,218.201-97.885,218.201-218.199C1000,549.372,981.435,501.238,950.546,463.585L950.546,463.585z M592.955,241.683
		c0-17.804,14.485-32.29,32.289-32.29c6.742,0,13.13,2.111,18.425,5.789c-19.685,5.368-37.152,16.143-50.714,30.628V241.683z
		 M407.045,241.683v4.129c-13.562-14.487-31.029-25.26-50.714-30.628c5.295-3.677,11.683-5.789,18.425-5.789
		C392.56,209.394,407.045,223.879,407.045,241.683L407.045,241.683z M218.2,790.606c-104.129,0-188.846-84.716-188.846-188.845
		c0-46.384,16.818-88.906,44.664-121.812l10.229-11.166c34.235-34.481,81.642-55.867,133.953-55.867
		c104.129,0,188.845,84.716,188.845,188.846C407.045,705.891,322.329,790.606,218.2,790.606z M218.2,383.562
		c-22.599,0-44.405,3.454-64.92,9.861l119.918-130.908c0.023-0.025,0.047-0.051,0.07-0.076
		c14.783-14.023,34.106-21.734,54.521-21.734c43.702,0,79.256,35.554,79.256,79.256v15.655v47.945h-32.289
		c-0.337,0-0.67,0.012-1,0.033c-4.269-0.409-8.664,1.043-11.893,4.341c-5.672,5.791-5.575,15.084,0.217,20.755
		c22.372,21.91,36.947,49.536,42.46,79.648C366.182,425.556,297.004,383.562,218.2,383.562z M563.601,555.773H436.399v-40.118
		c0-37.354-11.313-72.872-32.337-102.739h191.875c-21.023,29.867-32.337,65.384-32.337,102.739V555.773z M637.92,408.69
		c4.287-4.199,5.587-10.585,3.281-16.127c-2.305-5.54-7.745-9.084-13.753-9.035l-2.302,0.033h-32.191v-47.945v-15.655
		c0-43.703,35.554-79.256,79.256-79.256c20.415,0,39.738,7.71,54.521,21.732c0.024,0.025,0.048,0.051,0.071,0.076l119.918,130.908
		c-20.516-6.405-42.321-9.859-64.92-9.859c-78.805,0-147.982,41.994-186.339,104.779C600.973,458.229,615.55,430.601,637.92,408.69
		L637.92,408.69z M781.801,790.606c-104.13,0-188.846-84.716-188.846-188.845c0-104.13,84.716-188.846,188.846-188.846
		c52.311,0,99.718,21.386,133.951,55.865l10.229,11.166c27.848,32.908,44.665,75.431,44.665,121.814
		C970.646,705.891,885.93,790.606,781.801,790.606z"/>
	<path fill="#666666" d="M218.2,446.184c-85.785,0-155.578,69.793-155.578,155.578c0,85.784,69.793,155.577,155.578,155.577
		s155.578-69.793,155.578-155.577C373.777,515.977,303.984,446.184,218.2,446.184z M218.2,727.984
		c-69.599,0-126.223-56.624-126.223-126.223c0-69.6,56.624-126.224,126.223-126.224c69.599,0,126.223,56.624,126.223,126.224
		C344.423,671.36,287.798,727.984,218.2,727.984z"/>
	<path fill="#666666" d="M781.801,446.184c-85.785,0-155.578,69.793-155.578,155.578c0,85.784,69.793,155.577,155.578,155.577
		c85.784,0,155.577-69.793,155.577-155.577C937.378,515.977,867.585,446.184,781.801,446.184z M781.801,727.984
		c-69.6,0-126.224-56.624-126.224-126.223c0-69.6,56.624-126.224,126.224-126.224c69.599,0,126.223,56.624,126.223,126.224
		C908.023,671.36,851.399,727.984,781.801,727.984z"/>
	<path fill="#666666" d="M781.801,508.807c-8.106,0-14.678,6.571-14.678,14.677s6.571,14.677,14.678,14.677
		c35.068,0,63.601,28.532,63.601,63.602c0,8.105,6.571,14.677,14.677,14.677s14.678-6.571,14.678-14.677
		C874.756,550.507,833.055,508.807,781.801,508.807z"/>
	<path fill="#666666" d="M218.2,508.807c-8.106,0-14.677,6.571-14.677,14.677s6.571,14.677,14.677,14.677
		c35.068,0,63.601,28.532,63.601,63.602c0,8.105,6.572,14.677,14.677,14.677s14.677-6.571,14.677-14.677
		C311.154,550.507,269.454,508.807,218.2,508.807z"/>
</g>
</svg>
