<?xml version="1.0" encoding="utf-8"?>
<!-- Generator: Adobe Illustrator 16.0.0, SVG Export Plug-In . SVG Version: 6.00 Build 0)  -->
<!DOCTYPE svg PUBLIC "-//W3C//DTD SVG 1.1//EN" "http://www.w3.org/Graphics/SVG/1.1/DTD/svg11.dtd">
<svg version="1.1" id="Capa_1" xmlns="http://www.w3.org/2000/svg" xmlns:xlink="http://www.w3.org/1999/xlink" x="0px" y="0px"
	 width="473px" height="473px" viewBox="0 0 473 473" enable-background="new 0 0 473 473" xml:space="preserve">
<g>
	<path fill="#666666" d="M451.426,315.003c-0.518-0.344-1.855-0.642-2.41-0.889l-201.09-88.884v-28.879
		c38.25-4.6,57.136-29.835,57.136-62.28c0-35.926-25.283-63.026-59.345-63.026c-35.763,0-65.771,29.481-65.771,64.384
		c0,6.005,4.973,10.882,10.978,10.882c1.788,0,3.452-0.535,4.934-1.291c3.519-1.808,6.024-5.365,6.024-9.591
		c0-22.702,20.674-42.62,44.217-42.62c22.003,0,37.981,17.356,37.981,41.262c0,23.523-19.011,41.262-44.924,41.262
		c-6.006,0-10.357,4.877-10.357,10.882v21.267v21.353c0,0.21-0.421,0.383-0.401,0.593L35.61,320.55
		C7.181,330.792-2.554,354.095,0.554,371.881c3.194,18.293,18.704,30.074,38.795,30.074H422.26
		c23.781,0,42.438-12.307,48.684-32.941C477.11,348.684,469.079,326.766,451.426,315.003z M450.116,364.031
		c-3.453,11.427-13.607,18.8-27.848,18.8H39.349c-9.725,0-16.104-5.394-17.5-13.368c-1.587-9.104,4.265-22.031,21.831-28.42
		l199.531-94.583l196.844,87.649C449.303,340.717,453.434,353.072,450.116,364.031z"/>
</g>
</svg>
