<?xml version="1.0" encoding="utf-8"?>
<!-- Generator: Adobe Illustrator 16.0.0, SVG Export Plug-In . SVG Version: 6.00 Build 0)  -->
<!DOCTYPE svg PUBLIC "-//W3C//DTD SVG 1.1//EN" "http://www.w3.org/Graphics/SVG/1.1/DTD/svg11.dtd">
<svg version="1.1" id="Capa_1" xmlns="http://www.w3.org/2000/svg" xmlns:xlink="http://www.w3.org/1999/xlink" x="0px" y="0px"
	 width="1000px" height="1000px" viewBox="0 0 1000 1000" enable-background="new 0 0 1000 1000" xml:space="preserve">
<g>
	<path fill="#666666" d="M500,148.148c-173.593,0-314.815,141.222-314.815,314.815c0,131.704,81.315,248.37,203.704,294.444v168.519
		c0,10.241,8.278,18.519,18.519,18.519h18.519v37.037c0,10.241,8.278,18.519,18.519,18.519h111.111
		c10.24,0,18.519-8.277,18.519-18.519v-37.037h18.519c10.24,0,18.519-8.277,18.519-18.519V757.407
		c122.389-46.074,203.703-162.74,203.703-294.444C814.814,289.37,673.593,148.148,500,148.148z M555.556,907.407
		c-10.241,0-18.519,8.278-18.519,18.519v37.037h-74.074v-37.037c0-10.24-8.277-18.519-18.519-18.519h-18.519v-92.593h148.148v92.593
		H555.556z M586.814,726.704c-7.61,2.5-12.74,9.61-12.74,17.592v33.481H425.926v-33.481c0-8-5.13-15.092-12.74-17.592
		c-114.204-37.556-190.963-143.556-190.963-263.741c0-153.167,124.611-277.778,277.778-277.778s277.777,124.611,277.777,277.778
		C777.777,583.148,701.019,689.148,586.814,726.704z"/>
	<path fill="#666666" d="M500,111.111c10.24,0,18.519-8.278,18.519-18.519V18.519C518.519,8.278,510.24,0,500,0
		s-18.519,8.278-18.519,18.519v74.074C481.481,102.833,489.76,111.111,500,111.111z"/>
	<path fill="#666666" d="M944.444,444.444H870.37c-10.24,0-18.519,8.278-18.519,18.519c0,10.241,8.278,18.519,18.519,18.519h74.074
		c10.241,0,18.519-8.277,18.519-18.519C962.963,452.723,954.686,444.444,944.444,444.444z"/>
	<path fill="#666666" d="M129.63,444.444H55.556c-10.241,0-18.519,8.278-18.519,18.519c0,10.241,8.278,18.519,18.519,18.519h74.074
		c10.24,0,18.518-8.277,18.518-18.519C148.148,452.723,139.87,444.444,129.63,444.444z"/>
	<path fill="#666666" d="M801.186,135.593l-52.371,52.37c-7.24,7.241-7.24,18.944,0,26.185c3.611,3.611,8.353,5.426,13.093,5.426
		c4.741,0,9.481-1.815,13.093-5.426l52.37-52.37c7.241-7.241,7.241-18.944,0-26.185C820.13,128.352,808.407,128.37,801.186,135.593z
		"/>
	<path fill="#666666" d="M225,711.777l-52.37,52.371c-7.241,7.24-7.241,18.944,0,26.185c3.611,3.611,8.352,5.427,13.092,5.427
		s9.481-1.815,13.093-5.427l52.37-52.37c7.241-7.24,7.241-18.944,0-26.186C243.944,704.537,232.241,704.537,225,711.777z"/>
	<path fill="#666666" d="M775,711.777c-7.24-7.24-18.944-7.24-26.186,0c-7.24,7.241-7.24,18.945,0,26.186l52.371,52.37
		c3.61,3.611,8.352,5.427,13.092,5.427c4.741,0,9.481-1.815,13.093-5.427c7.241-7.24,7.241-18.944,0-26.185L775,711.777z"/>
	<path fill="#666666" d="M225,214.148c3.611,3.611,8.352,5.426,13.093,5.426s9.481-1.815,13.092-5.426
		c7.241-7.241,7.241-18.944,0-26.185l-52.37-52.37c-7.241-7.241-18.945-7.241-26.186,0s-7.241,18.944,0,26.185L225,214.148z"/>
	<path fill="#666666" d="M500,240.741c-122.537,0-222.222,99.685-222.222,222.222c0,10.241,8.278,18.519,18.519,18.519
		s18.518-8.277,18.518-18.519c0-102.111,83.074-185.185,185.186-185.185c10.24,0,18.519-8.278,18.519-18.519
		S510.24,240.741,500,240.741z"/>
</g>
</svg>
