<?xml version="1.0" encoding="utf-8"?>
<!-- Generator: Adobe Illustrator 16.0.0, SVG Export Plug-In . SVG Version: 6.00 Build 0)  -->
<!DOCTYPE svg PUBLIC "-//W3C//DTD SVG 1.1//EN" "http://www.w3.org/Graphics/SVG/1.1/DTD/svg11.dtd">
<svg version="1.1" id="Capa_1" xmlns="http://www.w3.org/2000/svg" xmlns:xlink="http://www.w3.org/1999/xlink" x="0px" y="0px"
	 width="1000px" height="1000px" viewBox="0 0 1000 1000" enable-background="new 0 0 1000 1000" xml:space="preserve">
<g>
	<defs>
		<path id="SVGID_1_" d="M980.534,16.481c-10.195,0.431-19.529,10.5-27.948,16.23c-81.047,55.082-163.365,108.692-241.627,167.223
			c-46.561,34.869-92.083,47.803-150.587,34.489c-46.511-10.651-95.607-6.821-143.181,2.814
			c-39.36,8.064-72.455,0.203-106.004-23.965C223.821,150.38,133.566,91.14,44.274,30.835C33.953,23.811,22.541,11.232,9.1,20.083
			C4.003,23.43,2.075,27.056,2,30.734v0.481c0.152,7.659,7.911,15.622,10.447,22.519C39.836,126.695,68.391,199.3,96.896,271.931
			c35.656,91.017,36.417,91.751-46.866,147.695c-33.626,22.622-37.049,43.341-10.295,73.646
			c133.799,151.551,266.735,303.81,399.469,456.223c15.773,18.132,34.893,28.607,58.784,32.791
			c32.409-1.496,53.001-21.024,72.629-43.62c116.808-134.153,234.047-267.951,351.258-401.774
			c71.134-81.203,88.736-84.93-18.435-145.896c-28.962-16.508-35.504-34.59-22.369-65.858
			c37.078-88.025,71.185-177.24,104.891-266.533c4.412-11.741,21.452-26.602,5.63-38.395c-3.299-2.46-6.544-3.576-9.689-3.728
			H980.534z"/>
	</defs>
	<clipPath id="SVGID_2_">
		<use xlink:href="#SVGID_1_"  overflow="visible"/>
	</clipPath>
	<g clip-path="url(#SVGID_2_)" enable-background="new    ">
		<g>
			<defs>
				<rect id="SVGID_3_" x="2" y="16.481" width="1012.768" height="986.803"/>
			</defs>
			<clipPath id="SVGID_4_">
				<use xlink:href="#SVGID_3_"  overflow="visible"/>
			</clipPath>
			<g clip-path="url(#SVGID_4_)">
				<defs>
					<rect id="SVGID_5_" x="-127.843" y="-113.36" width="1255.868" height="1225.487"/>
				</defs>
				<clipPath id="SVGID_6_">
					<use xlink:href="#SVGID_5_"  overflow="visible"/>
				</clipPath>
				<g clip-path="url(#SVGID_6_)">
					<defs>
						<rect id="SVGID_7_" x="2" y="16.481" width="1012.768" height="986.803"/>
					</defs>
					<clipPath id="SVGID_8_">
						<use xlink:href="#SVGID_7_"  overflow="visible"/>
					</clipPath>
					<rect x="-257.686" y="-243.204" clip-path="url(#SVGID_8_)" fill="#666666" width="1515.555" height="1485.173"/>
				</g>
			</g>
		</g>
	</g>
</g>
<g>
	<defs>
		<path id="SVGID_9_" d="M122.182,166.485c26.679,68.598,53.129,136.689,79.63,204.78c32.664,83.94,32.714,83.89-55.995,91.677
			c-2.079,0.177-4.285,0.126-6.543,0.1c-7.961-0.152-16.23-0.304-17.928,9.358c-1.064,6.163,4.893,14.709,9.915,20.465
			c103.875,118.761,208.104,237.344,314.056,358.081c8.877-19.934,2.385-33.98-3.549-48.869
			c-24.802-62.104-48.767-124.566-72.961-186.875c-29.441-75.827-29.441-75.725,53.839-78.059c2.941-0.076,6.238,0.279,9.535,0.608
			c8.927,0.938,18.159,1.877,22.672-5.681c8.724-14.557-8.571-21.937-16.281-30.837C346.211,395.002,253.37,289.227,160.68,183.323
			c-7.862-8.952-14.456-20.694-26.07-20.694C131.007,162.629,126.899,163.796,122.182,166.485z"/>
	</defs>
	<clipPath id="SVGID_10_">
		<use xlink:href="#SVGID_9_"  overflow="visible"/>
	</clipPath>
	<g clip-path="url(#SVGID_10_)" enable-background="new    ">
		<g>
			<defs>
				<rect id="SVGID_11_" x="103.874" y="146.324" width="363.559" height="727.117"/>
			</defs>
			<clipPath id="SVGID_12_">
				<use xlink:href="#SVGID_11_"  overflow="visible"/>
			</clipPath>
			<g clip-path="url(#SVGID_12_)">
				<defs>
					<rect id="SVGID_13_" x="-8.624" y="32.788" width="595.702" height="947.976"/>
				</defs>
				<clipPath id="SVGID_14_">
					<use xlink:href="#SVGID_13_"  overflow="visible"/>
				</clipPath>
				<g clip-path="url(#SVGID_14_)">
					<defs>
						<rect id="SVGID_15_" x="103.874" y="146.324" width="363.559" height="727.117"/>
					</defs>
					<clipPath id="SVGID_16_">
						<use xlink:href="#SVGID_15_"  overflow="visible"/>
					</clipPath>
					<rect x="-138.465" y="-97.055" clip-path="url(#SVGID_16_)" fill="#FDFDFD" width="855.385" height="1207.662"/>
				</g>
			</g>
		</g>
	</g>
</g>
<g>
	<defs>
		<path id="SVGID_17_" d="M840.856,176.325c-88.38,100.855-177.038,201.559-264.301,303.251
			c-13.746,16.079-44.152,31.041-33.426,51.989c7.862,15.418,39.739,6.416,60.408,5.122c40.906-2.586,53.534,6.239,36.111,47.448
			c-34.008,80.542-62.916,163.064-93.956,244.773c-3.704,11.157,2.001,13.72,12.17,12.249
			c92.818-105.447,185.989-210.589,278.251-316.491c14.428-16.561,45.648-33.425,37.023-51.886
			c-10.751-23.028-44.786-9.713-67.963-9.054c-39.462,1.14-44.636-10.296-30.358-44.077c30.966-73.289,58.176-148.024,86.73-222.227
			c4.21-10.98,13.164-22.443,0.56-32.892c-1.14-0.152-2.204-0.229-3.168-0.229C849.53,164.303,845.343,171.151,840.856,176.325z"/>
	</defs>
	<clipPath id="SVGID_18_">
		<use xlink:href="#SVGID_17_"  overflow="visible"/>
	</clipPath>
	<g clip-path="url(#SVGID_18_)" enable-background="new    ">
		<g>
			<defs>
				<rect id="SVGID_19_" x="519.368" y="146.324" width="363.561" height="701.149"/>
			</defs>
			<clipPath id="SVGID_20_">
				<use xlink:href="#SVGID_19_"  overflow="visible"/>
			</clipPath>
			<g clip-path="url(#SVGID_20_)">
				<defs>
					<rect id="SVGID_21_" x="411.057" y="34.487" width="593.447" height="936.894"/>
				</defs>
				<clipPath id="SVGID_22_">
					<use xlink:href="#SVGID_21_"  overflow="visible"/>
				</clipPath>
				<g clip-path="url(#SVGID_22_)">
					<defs>
						<rect id="SVGID_23_" x="519.368" y="146.324" width="363.561" height="701.149"/>
					</defs>
					<clipPath id="SVGID_24_">
						<use xlink:href="#SVGID_23_"  overflow="visible"/>
					</clipPath>
					<rect x="281.215" y="-95.355" clip-path="url(#SVGID_24_)" fill="#FDFDFD" width="853.129" height="1196.577"/>
				</g>
			</g>
		</g>
	</g>
</g>
</svg>
