<?xml version="1.0" standalone="no"?>
<!DOCTYPE svg PUBLIC "-//W3C//DTD SVG 20010904//EN"
 "http://www.w3.org/TR/2001/REC-SVG-20010904/DTD/svg10.dtd">
<svg version="1.0" xmlns="http://www.w3.org/2000/svg"
 width="197.000000pt" height="257.000000pt" viewBox="0 0 197.000000 257.000000"
 preserveAspectRatio="xMidYMid meet">
<metadata>
Created by potrace 1.10, written by Peter Selinger 2001-2011
</metadata>
<g transform="translate(0.000000,257.000000) scale(0.050000,-0.050000)"
fill="#ff3737" stroke="none">
<path d="M2960 4448 c-479 -347 -912 -672 -963 -722 -254 -248 -286 -553 -86
-825 85 -115 1908 -1475 1938 -1445 18 17 13 103 -9 143 -10 21 -307 246 -660
501 -352 255 -640 476 -640 492 0 31 7 36 721 548 581 417 599 433 599 528 0
96 62 134 -724 -438 -517 -376 -716 -510 -756 -510 -64 0 -306 171 -295 207 9
25 351 280 1155 858 577 415 620 452 620 550 0 89 67 131 -852 -540 -1114
-814 -1009 -743 -1046 -706 -47 48 -40 280 13 382 63 122 150 193 1010 816
824 598 875 640 875 736 0 83 41 109 -900 -575z"/>
<path d="M173 5007 c-40 -41 -13 -4885 27 -4907 105 -56 100 -184 101 2446 1
1339 -4 2443 -11 2454 -14 22 -96 27 -117 7z"/>
<path d="M731 5002 c-8 -13 -18 -4394 -11 -4865 0 -43 53 -62 101 -36 48 25
63 4847 15 4895 -28 28 -89 32 -105 6z"/>
<path d="M1267 4995 c-42 -60 -10 -4891 33 -4905 107 -34 101 -181 100 2458 0
1340 -5 2445 -11 2454 -17 27 -102 22 -122 -7z"/>
<path d="M1780 2364 c0 -101 -10 -92 740 -638 347 -252 786 -573 976 -712 397
-291 364 -275 364 -181 0 100 2 99 -1060 871 -500 363 -929 678 -951 699 -59
53 -69 47 -69 -39z"/>
<path d="M1781 1707 c1 -108 -13 -95 609 -549 308 -225 759 -555 1003 -734
497 -363 467 -347 467 -259 -1 98 -19 114 -740 639 -368 268 -803 586 -967
707 -163 120 -313 231 -335 246 -36 26 -38 23 -37 -50z"/>
</g>
</svg>
