<?xml version="1.0" encoding="utf-8"?>
<!-- Generator: Adobe Illustrator 16.0.0, SVG Export Plug-In . SVG Version: 6.00 Build 0)  -->
<!DOCTYPE svg PUBLIC "-//W3C//DTD SVG 1.1//EN" "http://www.w3.org/Graphics/SVG/1.1/DTD/svg11.dtd">
<svg version="1.1" id="Capa_1" xmlns="http://www.w3.org/2000/svg" xmlns:xlink="http://www.w3.org/1999/xlink" x="0px" y="0px"
	 width="1000px" height="1000px" viewBox="0 0 1000 1000" enable-background="new 0 0 1000 1000" xml:space="preserve">
<g>
	<path fill="#666666" d="M991.037,21.167c-5.556-3.37-12.481-3.519-18.204-0.5L666.667,182.759L360.519,20.667
		c-0.241-0.129-0.519-0.167-0.759-0.278c-0.89-0.426-1.797-0.741-2.723-1.019c-0.519-0.148-1.019-0.314-1.537-0.426
		c-1.019-0.204-2.056-0.278-3.111-0.314c-0.463-0.019-0.926-0.074-1.407-0.056c-1,0.056-1.981,0.241-2.963,0.463
		c-0.556,0.111-1.111,0.185-1.648,0.352c-0.13,0.037-0.259,0.037-0.37,0.074L12.667,130.574C5.093,133.093,0,140.167,0,148.148
		v796.296c0,5.944,2.852,11.537,7.704,15.037c3.185,2.278,6.981,3.481,10.815,3.481c1.963,0,3.944-0.314,5.852-0.963
		l326.778-108.926l308.463,127.019c0.259,0.111,0.556,0.074,0.814,0.167c2.037,0.722,4.111,1.222,6.241,1.222
		c1.666,0,3.314-0.277,4.926-0.723c0.519-0.147,1-0.389,1.519-0.573c0.74-0.278,1.519-0.481,2.222-0.853l314.815-166.666
		c6.055-3.204,9.852-9.519,9.852-16.371V37.037C1000,30.537,996.593,24.519,991.037,21.167z M37.037,161.5l296.296-98.759v499.852
		c-7.963,1.444-15.814,3.074-23.407,5.074c-9.889,2.629-15.778,12.759-13.148,22.647c2.204,8.297,9.685,13.778,17.889,13.778
		c1.556,0,3.166-0.204,4.759-0.611c4.444-1.186,9.297-1.777,13.907-2.74V820L37.037,918.74V161.5z M370.37,595.556
		c5.944-0.463,11.704-1.223,17.797-1.352c10.222-0.223,18.333-8.686,18.129-18.908c-0.222-10.092-8.463-18.129-18.519-18.129
		c-0.129,0-0.277,0-0.407,0c-5.74,0.129-11.389,0.444-17,0.833V67.796l277.778,147.056v392.481
		c-13.223-0.573-26.667-2.129-40.76-4.852c-10.074-1.981-19.759,4.611-21.703,14.648c-1.945,10.037,4.629,19.759,14.666,21.703
		c16.408,3.186,32.334,4.741,47.815,5.353v291.129L370.37,820.926V595.556z M962.963,785.13L685.186,932.186v-290
		c6.889-3.13,11.481-10.167,10.87-18.148c-0.537-6.926-4.981-12.481-10.87-15.204V214.852L962.963,67.796V785.13z"/>
	<path fill="#666666" d="M203.704,166.667c-51.056,0-92.592,41.537-92.592,92.593c0,44.722,31.87,82.111,74.074,90.722v38.907
		c0,10.241,8.296,18.519,18.519,18.519s18.519-8.277,18.519-18.519v-38.907c42.204-8.611,74.074-46,74.074-90.722
		C296.296,208.204,254.759,166.667,203.704,166.667z M203.704,314.815c-30.629,0-55.556-24.926-55.556-55.556
		s24.926-55.556,55.556-55.556c30.63,0,55.556,24.926,55.556,55.556S234.333,314.815,203.704,314.815z"/>
	<path fill="#666666" d="M834.63,512.463c2.222,0.87,4.5,1.26,6.74,1.26c7.407,0,14.39-4.463,17.26-11.778
		c8.703-22.203,15.685-47.277,20.796-74.519c1.889-10.037-4.74-19.703-14.796-21.611c-10.111-1.666-19.723,4.76-21.611,14.815
		c-4.667,24.963-11.019,47.777-18.87,67.833C820.426,497.963,825.111,508.723,834.63,512.463z"/>
	<path fill="#666666" d="M237.13,598.926c-22.352,14.019-42.5,31.574-59.908,52.223c-6.592,7.814-5.592,19.5,2.222,26.092
		c3.481,2.927,7.722,4.353,11.926,4.353c5.278,0,10.5-2.241,14.167-6.574c14.926-17.704,32.167-32.76,51.259-44.704
		c8.667-5.444,11.278-16.87,5.852-25.537C257.222,596.111,245.778,593.481,237.13,598.926z"/>
	<path fill="#666666" d="M159.759,708.814c-9.296-4.259-20.296-0.24-24.574,9.056c-19,41.223-23.704,74.5-23.907,75.907
		c-1.389,10.13,5.685,19.445,15.815,20.834c0.852,0.129,1.722,0.185,2.555,0.185c9.093,0,17.019-6.703,18.333-15.944
		c0.037-0.296,4.278-29.574,20.833-65.444C173.093,724.093,169.037,713.111,159.759,708.814z"/>
	<path fill="#666666" d="M748.574,624.611c2.833,0,5.722-0.648,8.407-2.019C780.907,610.352,802,592.981,819.648,571
		c6.407-7.981,5.129-19.648-2.853-26.037c-7.963-6.352-19.629-5.111-26.036,2.852c-14.371,17.908-31.408,31.963-50.648,41.797
		c-9.111,4.666-12.723,15.814-8.056,24.926C735.352,620.926,741.852,624.611,748.574,624.611z"/>
	<path fill="#666666" d="M540.186,582.074c-8.167-3.426-12.945-5.797-13.26-5.963c-1.203-0.611-2.481-1.111-3.796-1.444
		c-20.056-5.148-39.815-9.223-58.76-12.111c-10.093-1.593-19.556,5.389-21.11,15.5c-1.537,10.111,5.407,19.574,15.518,21.111
		c17.148,2.629,35.056,6.296,53.278,10.926c2.481,1.185,7.222,3.426,13.852,6.185c2.333,0.982,4.76,1.427,7.13,1.427
		c7.24,0,14.13-4.26,17.093-11.371C554.074,596.852,549.63,586,540.186,582.074z"/>
	<path fill="#666666" d="M868.944,369.093c0.407,0.019,0.796,0.037,1.204,0.037c9.685,0,17.833-7.519,18.463-17.352
		c1.148-17.796,1.722-36.63,1.722-55.926c0-6.426-0.056-12.944-0.185-19.592c-0.186-10.241-9.074-18.019-18.853-18.185
		c-10.222,0.185-18.37,8.629-18.185,18.852c0.111,6.426,0.185,12.741,0.185,18.926c0,18.519-0.556,36.537-1.647,53.574
		C851,359.63,858.74,368.426,868.944,369.093z"/>
	<path fill="#666666" d="M153.574,531.611c3.611,3.611,8.352,5.426,13.092,5.426s9.481-1.814,13.093-5.426l23.944-23.944
		l23.944,23.944c3.611,3.611,8.352,5.426,13.093,5.426s9.481-1.814,13.093-5.426c7.241-7.241,7.241-18.944,0-26.186l-23.945-23.944
		l23.945-23.944c7.241-7.241,7.241-18.944,0-26.186c-7.241-7.24-18.945-7.24-26.186,0l-23.944,23.944l-23.944-23.944
		c-7.241-7.24-18.944-7.24-26.185,0c-7.241,7.241-7.241,18.944,0,26.186l23.944,23.944l-23.944,23.944
		C146.333,512.648,146.333,524.37,153.574,531.611z"/>
</g>
</svg>
