<?xml version="1.0" encoding="utf-8"?>
<!-- Generator: Adobe Illustrator 16.0.0, SVG Export Plug-In . SVG Version: 6.00 Build 0)  -->
<!DOCTYPE svg PUBLIC "-//W3C//DTD SVG 1.1//EN" "http://www.w3.org/Graphics/SVG/1.1/DTD/svg11.dtd">
<svg version="1.1" id="Capa_1" xmlns="http://www.w3.org/2000/svg" xmlns:xlink="http://www.w3.org/1999/xlink" x="0px" y="0px"
	 width="1000px" height="1000px" viewBox="0 0 1000 1000" enable-background="new 0 0 1000 1000" xml:space="preserve">
<g>
	<path fill="#666666" d="M700,166.667c-36.767,0-66.667,29.9-66.667,66.667v21.117L115.917,417.517
		c-3.733-28.6-27.983-50.85-57.583-50.85C26.167,366.667,0,392.833,0,425v150c0,32.167,26.167,58.333,58.333,58.333
		c29.6,0,53.85-22.25,57.583-50.85l35.567,11.2c-5.267,5.767-9.483,12.633-12.05,20.533c-9.634,29.717,6.7,61.75,36.45,71.383
		l190.25,61.634h0.017C371.934,749.1,377.783,750,383.55,750c23.917,0,46.2-15.283,53.967-39.233c2.851-8.833,3.184-17.8,1.783-26.4
		l194.033,61.184v21.117c0,36.767,29.9,66.666,66.667,66.666s66.667-29.899,66.667-66.666V233.333
		C766.667,196.566,736.767,166.667,700,166.667z M405.8,700.517c-3.967,12.25-17.167,19-29.399,15.017L186.15,653.9
		c-12.25-3.967-19-17.15-15.017-29.4c3.983-12.233,17.15-18.95,29.383-15L390.8,671.133C403.033,675.1,409.75,688.283,405.8,700.517
		z M83.333,575c0,13.783-11.217,25-25,25c-13.784,0-25-11.217-25-25V425c0-13.783,11.216-25,25-25c13.783,0,25,11.217,25,25v2.783
		v144.434V575z M116.667,547.767v-95.533l516.667-162.85V710.6L116.667,547.767z M733.333,766.667
		C733.333,785.05,718.383,800,700,800s-33.333-14.95-33.333-33.333V756.05v-512.1v-10.617C666.667,214.95,681.617,200,700,200
		s33.333,14.95,33.333,33.333V766.667z"/>
	<path fill="#666666" d="M916.667,483.333H900c-9.217,0-16.667,7.45-16.667,16.667s7.45,16.667,16.667,16.667h16.667
		c9.216,0,16.666-7.45,16.666-16.667S925.883,483.333,916.667,483.333z"/>
	<path fill="#666666" d="M833.333,516.667H850c9.217,0,16.667-7.45,16.667-16.667s-7.45-16.667-16.667-16.667h-16.667
		c-9.216,0-16.666,7.45-16.666,16.667S824.117,516.667,833.333,516.667z"/>
	<path fill="#666666" d="M983.333,483.333h-16.666c-9.217,0-16.667,7.45-16.667,16.667s7.45,16.667,16.667,16.667h16.666
		c9.217,0,16.667-7.45,16.667-16.667S992.55,483.333,983.333,483.333z"/>
	<path fill="#666666" d="M880.467,275.6c4.267,0,8.533-1.633,11.783-4.883l11.783-11.783c6.517-6.517,6.517-17.05,0-23.567
		s-17.05-6.517-23.566,0l-11.783,11.783c-6.517,6.517-6.517,17.05,0,23.567C871.934,273.967,876.2,275.6,880.467,275.6z"/>
	<path fill="#666666" d="M927.617,228.45c4.267,0,8.533-1.634,11.783-4.884l11.783-11.783c6.517-6.517,6.517-17.05,0-23.566
		s-17.05-6.517-23.566,0L915.833,200c-6.517,6.517-6.517,17.05,0,23.566C919.1,226.816,923.35,228.45,927.617,228.45z"/>
	<path fill="#666666" d="M833.333,322.733c4.267,0,8.534-1.633,11.784-4.883l11.783-11.784c6.517-6.517,6.517-17.05,0-23.566
		s-17.051-6.517-23.567,0l-11.783,11.783c-6.517,6.517-6.517,17.05,0,23.567C824.8,321.117,829.066,322.733,833.333,322.733z"/>
	<path fill="#666666" d="M843.867,385l-15.801,5.267c-8.733,2.917-13.449,12.35-10.533,21.083c2.333,6.983,8.816,11.4,15.8,11.4
		c1.733,0,3.534-0.283,5.267-0.867l15.801-5.267c8.733-2.916,13.449-12.35,10.533-21.083C862.017,386.8,852.583,382.066,843.867,385
		z"/>
	<path fill="#666666" d="M896.583,401.667c1.733,0,3.534-0.283,5.267-0.867l15.801-5.267c8.732-2.917,13.449-12.35,10.533-21.083
		c-2.917-8.733-12.334-13.467-21.084-10.534l-15.8,5.267c-8.733,2.917-13.45,12.35-10.533,21.083
		C883.1,397.25,889.6,401.667,896.583,401.667z"/>
	<path fill="#666666" d="M944.017,369.15c2.333,7,8.833,11.417,15.816,11.417c1.733,0,3.517-0.283,5.25-0.85l15.8-5.25
		c8.734-2.917,13.467-12.35,10.567-21.083c-2.917-8.733-12.367-13.433-21.083-10.567l-15.801,5.25
		C945.833,351,941.117,360.434,944.017,369.15z"/>
	<path fill="#666666" d="M939.4,776.434c-6.518-6.517-17.051-6.517-23.567,0s-6.517,17.05,0,23.566l11.783,11.783
		c3.267,3.25,7.517,4.884,11.784,4.884c4.267,0,8.533-1.634,11.783-4.884c6.517-6.517,6.517-17.05,0-23.566L939.4,776.434z"/>
	<path fill="#666666" d="M892.25,729.283c-6.517-6.517-17.05-6.517-23.566,0s-6.517,17.05,0,23.566l11.783,11.784
		c3.25,3.25,7.517,4.883,11.783,4.883s8.533-1.633,11.783-4.883c6.517-6.517,6.517-17.051,0-23.567L892.25,729.283z"/>
	<path fill="#666666" d="M845.117,682.15c-6.518-6.517-17.051-6.517-23.567,0s-6.517,17.05,0,23.566l11.783,11.783
		c3.25,3.25,7.517,4.883,11.784,4.883c4.266,0,8.533-1.633,11.783-4.883c6.517-6.517,6.517-17.05,0-23.566L845.117,682.15z"/>
	<path fill="#666666" d="M891.316,630.816l15.801,5.267c1.732,0.584,3.533,0.867,5.267,0.867c6.983,0,13.483-4.417,15.8-11.4
		c2.916-8.717-1.783-18.167-10.533-21.083L901.85,599.2c-8.699-2.95-18.166,1.8-21.083,10.533S882.566,627.9,891.316,630.816z"/>
	<path fill="#666666" d="M854.417,583.4l-15.801-5.268c-8.716-2.949-18.166,1.801-21.083,10.534
		c-2.916,8.733,1.783,18.166,10.533,21.083l15.801,5.267c1.732,0.583,3.533,0.866,5.267,0.866c6.983,0,13.483-4.416,15.8-11.399
		C867.85,595.75,863.15,586.316,854.417,583.4z"/>
	<path fill="#666666" d="M980.9,625.533l-15.801-5.25c-8.699-2.883-18.183,1.816-21.083,10.566
		c-2.899,8.717,1.816,18.167,10.566,21.084l15.8,5.25c1.734,0.566,3.518,0.85,5.25,0.85c6.983,0,13.5-4.417,15.817-11.417
		C994.35,637.883,989.633,628.45,980.9,625.533z"/>
</g>
</svg>
