<?xml version="1.0" encoding="utf-8"?>
<!-- Generator: Adobe Illustrator 16.0.0, SVG Export Plug-In . SVG Version: 6.00 Build 0)  -->
<!DOCTYPE svg PUBLIC "-//W3C//DTD SVG 1.1//EN" "http://www.w3.org/Graphics/SVG/1.1/DTD/svg11.dtd">
<svg version="1.1" id="Layer_1" xmlns="http://www.w3.org/2000/svg" xmlns:xlink="http://www.w3.org/1999/xlink" x="0px" y="0px"
	 width="1000px" height="1000px" viewBox="0 0 1000 1000" enable-background="new 0 0 1000 1000" xml:space="preserve">
<g>
	<g>
		<g>
			<g>
				<path fill="#666666" d="M942.383,799.414H100.195c-8.594,0-14.844-4.102-19.141-10.156S78.906,775,83.203,768.945
					l216.992-289.062c6.445-8.203,19.141-10.156,27.734-4.102l99.805,65.234l140.43-252.344c2.148-6.055,8.594-10.156,14.844-10.156
					s12.695,1.953,16.992,6.055L706.25,390.43L925.391,32.227c4.297-8.203,14.844-12.305,23.438-10.156
					c8.594,1.953,14.844,10.156,14.844,18.359v736.719C963.672,791.211,952.93,799.414,942.383,799.414z M140.625,758.789h780.469
					V115.625l-191.406,315.43c-4.297,6.055-8.594,8.203-14.844,10.156c-6.445,0-12.695-1.953-16.992-6.055L593.555,331.445
					L455.273,577.734c-2.148,4.102-8.594,8.203-12.695,10.156c-6.445,1.953-12.695,0-16.992-1.953L323.438,518.75L140.625,758.789
					L140.625,758.789z"/>
			</g>
			<g>
				<rect x="21.484" y="937.891" fill="#666666" width="957.031" height="40.625"/>
			</g>
		</g>
	</g>
</g>
</svg>
