<?xml version="1.0" encoding="utf-8"?>
<!-- Generator: Adobe Illustrator 16.0.0, SVG Export Plug-In . SVG Version: 6.00 Build 0)  -->
<!DOCTYPE svg PUBLIC "-//W3C//DTD SVG 1.1//EN" "http://www.w3.org/Graphics/SVG/1.1/DTD/svg11.dtd">
<svg version="1.1" id="Capa_1" xmlns="http://www.w3.org/2000/svg" xmlns:xlink="http://www.w3.org/1999/xlink" x="0px" y="0px"
	 width="1000px" height="1000px" viewBox="0 0 1000 1000" enable-background="new 0 0 1000 1000" xml:space="preserve">
<g>
	<path fill="#666666" d="M983.801,412.527c8.946,0,16.199-7.251,16.199-16.199V292.657c0-27.987-22.769-50.756-50.756-50.756H50.756
		C22.769,241.9,0,264.669,0,292.657v103.671c0,8.948,7.253,16.199,16.199,16.199c48.233,0,87.473,39.239,87.473,87.473
		s-39.24,87.473-87.473,87.473C7.253,587.473,0,594.724,0,603.672v103.672C0,735.33,22.769,758.1,50.756,758.1h898.488
		c27.987,0,50.756-22.77,50.756-50.756V603.672c0-8.948-7.253-16.199-16.199-16.199c-48.232,0-87.473-39.239-87.473-87.473
		S935.568,412.527,983.801,412.527z M863.931,500c0,60.607,45.205,110.851,103.672,118.779v88.564
		c0,10.123-8.235,18.358-18.358,18.358h-173.92c0.023-0.358,0.054-0.715,0.054-1.08v-34.558c0-8.948-7.253-16.198-16.198-16.198
		c-8.946,0-16.199,7.25-16.199,16.198v34.558c0,0.365,0.03,0.722,0.054,1.08H50.756c-10.123,0-18.358-8.235-18.358-18.358v-88.564
		C90.864,610.851,136.069,560.604,136.069,500S90.864,389.149,32.397,381.22v-88.563c0-10.124,8.235-18.359,18.358-18.359h692.281
		c-0.024,0.359-0.055,0.715-0.055,1.08v34.557c0,8.948,7.253,16.199,16.199,16.199c8.945,0,16.198-7.25,16.198-16.199v-34.557
		c0-0.365-0.03-0.721-0.054-1.08h173.918c10.123,0,18.358,8.235,18.358,18.359v88.563C909.139,389.149,863.931,439.396,863.931,500z
		"/>
	<path fill="#666666" d="M759.18,466.522c-8.946,0-16.199,7.251-16.199,16.199v34.557c0,8.948,7.253,16.199,16.199,16.199
		c8.945,0,16.198-7.251,16.198-16.199v-34.557C775.378,473.775,768.127,466.522,759.18,466.522z"/>
	<path fill="#666666" d="M759.18,362.851c-8.946,0-16.199,7.25-16.199,16.199v34.557c0,8.948,7.253,16.199,16.199,16.199
		c8.945,0,16.198-7.251,16.198-16.199V379.05C775.378,370.104,768.127,362.851,759.18,362.851z"/>
	<path fill="#666666" d="M759.18,570.194c-8.946,0-16.199,7.251-16.199,16.198v34.558c0,8.948,7.253,16.199,16.199,16.199
		c8.945,0,16.198-7.251,16.198-16.199v-34.558C775.378,577.447,768.127,570.194,759.18,570.194z"/>
	<path fill="#666666" d="M638.229,345.572H240.821c-18.46,0-33.478,15.018-33.478,33.478v241.9c0,18.46,15.018,33.478,33.478,33.478
		h397.408c18.461,0,33.478-15.018,33.478-33.478v-241.9C671.706,360.59,656.689,345.572,638.229,345.572z M639.309,620.95
		c0,0.594-0.483,1.08-1.08,1.08H240.821c-0.596,0-1.08-0.486-1.08-1.08v-241.9c0-0.594,0.484-1.08,1.08-1.08h397.408
		c0.597,0,1.08,0.486,1.08,1.08V620.95z"/>
	<path fill="#666666" d="M569.114,449.244H309.936c-8.946,0-16.199,7.25-16.199,16.198s7.253,16.199,16.199,16.199h259.179
		c8.946,0,16.199-7.251,16.199-16.199S578.061,449.244,569.114,449.244z"/>
	<path fill="#666666" d="M361.771,518.358h-51.836c-8.946,0-16.199,7.251-16.199,16.199s7.253,16.198,16.199,16.198h51.836
		c8.945,0,16.198-7.25,16.198-16.198S370.717,518.358,361.771,518.358z"/>
	<path fill="#666666" d="M569.114,518.358H430.886c-8.946,0-16.199,7.251-16.199,16.199s7.253,16.198,16.199,16.198h138.229
		c8.946,0,16.199-7.25,16.199-16.198S578.061,518.358,569.114,518.358z"/>
</g>
</svg>
